<svg width="22" height="21" viewBox="0 0 22 21" fill="none" xmlns="http://www.w3.org/2000/svg">
<path d="M7.66897 18.5477H7.64333H2.49115H2.46551H7.66897ZM7.66897 18.5477V18.522V10.3233V10.0608V9.94738M7.66897 18.5477V9.94738M13.3925 18.5477H13.4183H18.5703H18.596V18.522V7.94392V7.6371V7.62246L13.3925 18.5477ZM13.3925 18.5477V18.522V10.3233V10.0608V9.94697C13.4091 9.98139 13.4183 10.02 13.4183 10.0608V18.0228V18.522H13.9176H18.0711H18.5703V18.0228V7.6371L13.3925 18.5477ZM7.66897 9.94738C7.65254 9.98169 7.64333 10.0201 7.64333 10.0608V18.0228V18.522L7.66897 9.94738ZM20.891 6.24897L20.8909 6.24895L20.9041 6.22719L20.891 6.24897ZM0.31457 8.87895C0.35317 8.87583 0.391208 8.86415 0.425757 8.84393L1.46698 8.2352V8.20516L0.807733 8.59061L0.412691 8.82158L0.412682 8.82159L0.31457 8.87895ZM1.96624 7.94332H1.91483L1.95315 7.92091L1.99189 7.89826V7.94332V7.98718L1.96624 7.94332ZM1.96624 8.52165L1.99189 8.50665V18.522V18.5477H1.96624H1.49581H1.23325H1.11991C1.15421 18.5312 1.19265 18.522 1.23325 18.522H1.46698H1.96624V18.0228V8.52165ZM1.99189 19.0213H2.46551H2.49115H7.64333H7.66897H8.1426H8.16824H12.8932H12.9191H13.3925H13.4183H18.5703H18.596H19.0696H19.0952H19.5657H19.5915V19.0469V20.4751V20.5009H19.5657H1.49581H1.47016V20.4751V19.0469V19.0213H1.49581H1.96624H1.99189ZM8.16824 18.5477H8.1426V18.522V10.3233V10.2975H8.16824H12.8932H12.9191V10.3233V18.522V18.5477H12.8932H8.16824ZM19.0952 18.5477H19.0696V18.522V8.50715L19.0952 8.52213V18.0228V18.522H19.5945H19.8282C19.8688 18.522 19.9073 18.5312 19.9416 18.5477H19.8282H19.5657H19.0952ZM19.0952 7.94392L19.0696 7.98781L19.0952 7.94392ZM20.0649 18.7846V18.6708C20.0815 18.7052 20.0908 18.7438 20.0908 18.7846V20.7376C20.0908 20.7784 20.0815 20.8169 20.0649 20.8514V20.7376V20.4751V19.0469V18.7846ZM19.8282 20.9743H19.9419C19.9075 20.9909 19.869 21.0002 19.8282 21.0002H1.23325C1.19251 21.0002 1.15395 20.9909 1.11957 20.9743H1.23325H1.49581H19.5657H19.8282ZM0.996539 20.7376V20.851C0.9801 20.8167 0.970895 20.7782 0.970895 20.7376V18.7846C0.970895 18.7439 0.9801 18.7054 0.996539 18.6711V18.7846V19.0469V20.4751V20.7376ZM13.2696 9.82407C13.2352 9.8075 13.1966 9.79823 13.1558 9.79823H7.90568C7.86497 9.79823 7.82641 9.8075 7.79201 9.82407H7.90568H8.16824H12.8932H13.1558H13.2696ZM0.0564659 8.61723V8.73051C0.0398534 8.69572 0.0308228 8.65712 0.0308228 8.61723V6.4517C0.0308228 6.41195 0.0398485 6.37337 0.0564659 6.33856V6.4517V6.5995V8.15961V8.61723Z" fill="white"/>
<path d="M7.66897 18.5477H7.64333H2.49115H2.46551H7.66897ZM7.66897 18.5477V18.522V10.3233V10.0608V9.94738M7.66897 18.5477V9.94738M13.3925 18.5477H13.4183H18.5703H18.596V18.522V7.94392V7.6371V7.62246L13.3925 18.5477ZM13.3925 18.5477V18.522V10.3233V10.0608V9.94697C13.4091 9.98139 13.4183 10.02 13.4183 10.0608V18.0228V18.522H13.9176H18.0711H18.5703V18.0228V7.6371L13.3925 18.5477ZM7.66897 9.94738C7.65254 9.98169 7.64333 10.0201 7.64333 10.0608V18.0228V18.522L7.66897 9.94738ZM20.891 6.24897L20.8909 6.24895L20.9041 6.22719L20.891 6.24897ZM0.31457 8.87895C0.35317 8.87583 0.391208 8.86415 0.425757 8.84393L1.46698 8.2352V8.20516L0.807733 8.59061L0.412691 8.82158L0.412682 8.82159L0.31457 8.87895ZM1.96624 7.94332H1.91483L1.95315 7.92091L1.99189 7.89826V7.94332V7.98718L1.96624 7.94332ZM1.96624 8.52165L1.99189 8.50665V18.522V18.5477H1.96624H1.49581H1.23325H1.11991C1.15421 18.5312 1.19265 18.522 1.23325 18.522H1.46698H1.96624V18.0228V8.52165ZM1.99189 19.0213H2.46551H2.49115H7.64333H7.66897H8.1426H8.16824H12.8932H12.9191H13.3925H13.4183H18.5703H18.596H19.0696H19.0952H19.5657H19.5915V19.0469V20.4751V20.5009H19.5657H1.49581H1.47016V20.4751V19.0469V19.0213H1.49581H1.96624H1.99189ZM8.16824 18.5477H8.1426V18.522V10.3233V10.2975H8.16824H12.8932H12.9191V10.3233V18.522V18.5477H12.8932H8.16824ZM19.0952 18.5477H19.0696V18.522V8.50715L19.0952 8.52213V18.0228V18.522H19.5945H19.8282C19.8688 18.522 19.9073 18.5312 19.9416 18.5477H19.8282H19.5657H19.0952ZM19.0952 7.94392L19.0696 7.98781L19.0952 7.94392ZM20.0649 18.7846V18.6708C20.0815 18.7052 20.0908 18.7438 20.0908 18.7846V20.7376C20.0908 20.7784 20.0815 20.8169 20.0649 20.8514V20.7376V20.4751V19.0469V18.7846ZM19.8282 20.9743H19.9419C19.9075 20.9909 19.869 21.0002 19.8282 21.0002H1.23325C1.19251 21.0002 1.15395 20.9909 1.11957 20.9743H1.23325H1.49581H19.5657H19.8282ZM0.996539 20.7376V20.851C0.9801 20.8167 0.970895 20.7782 0.970895 20.7376V18.7846C0.970895 18.7439 0.9801 18.7054 0.996539 18.6711V18.7846V19.0469V20.4751V20.7376ZM13.2696 9.82407C13.2352 9.8075 13.1966 9.79823 13.1558 9.79823H7.90568C7.86497 9.79823 7.82641 9.8075 7.79201 9.82407H7.90568H8.16824H12.8932H13.1558H13.2696ZM0.0564659 8.61723V8.73051C0.0398534 8.69572 0.0308228 8.65712 0.0308228 8.61723V6.4517C0.0308228 6.41195 0.0398485 6.37337 0.0564659 6.33856V6.4517V6.5995V8.15961V8.61723Z" fill="black" fill-opacity="0.2"/>
<path d="M7.66897 18.5477H7.64333H2.49115H2.46551H7.66897ZM7.66897 18.5477V18.522V10.3233V10.0608V9.94738M7.66897 18.5477V9.94738M13.3925 18.5477H13.4183H18.5703H18.596V18.522V7.94392V7.6371V7.62246L13.3925 18.5477ZM13.3925 18.5477V18.522V10.3233V10.0608V9.94697C13.4091 9.98139 13.4183 10.02 13.4183 10.0608V18.0228V18.522H13.9176H18.0711H18.5703V18.0228V7.6371L13.3925 18.5477ZM7.66897 9.94738C7.65254 9.98169 7.64333 10.0201 7.64333 10.0608V18.0228V18.522L7.66897 9.94738ZM20.891 6.24897L20.8909 6.24895L20.9041 6.22719L20.891 6.24897ZM0.31457 8.87895C0.35317 8.87583 0.391208 8.86415 0.425757 8.84393L1.46698 8.2352V8.20516L0.807733 8.59061L0.412691 8.82158L0.412682 8.82159L0.31457 8.87895ZM1.96624 7.94332H1.91483L1.95315 7.92091L1.99189 7.89826V7.94332V7.98718L1.96624 7.94332ZM1.96624 8.52165L1.99189 8.50665V18.522V18.5477H1.96624H1.49581H1.23325H1.11991C1.15421 18.5312 1.19265 18.522 1.23325 18.522H1.46698H1.96624V18.0228V8.52165ZM1.99189 19.0213H2.46551H2.49115H7.64333H7.66897H8.1426H8.16824H12.8932H12.9191H13.3925H13.4183H18.5703H18.596H19.0696H19.0952H19.5657H19.5915V19.0469V20.4751V20.5009H19.5657H1.49581H1.47016V20.4751V19.0469V19.0213H1.49581H1.96624H1.99189ZM8.16824 18.5477H8.1426V18.522V10.3233V10.2975H8.16824H12.8932H12.9191V10.3233V18.522V18.5477H12.8932H8.16824ZM19.0952 18.5477H19.0696V18.522V8.50715L19.0952 8.52213V18.0228V18.522H19.5945H19.8282C19.8688 18.522 19.9073 18.5312 19.9416 18.5477H19.8282H19.5657H19.0952ZM19.0952 7.94392L19.0696 7.98781L19.0952 7.94392ZM20.0649 18.7846V18.6708C20.0815 18.7052 20.0908 18.7438 20.0908 18.7846V20.7376C20.0908 20.7784 20.0815 20.8169 20.0649 20.8514V20.7376V20.4751V19.0469V18.7846ZM19.8282 20.9743H19.9419C19.9075 20.9909 19.869 21.0002 19.8282 21.0002H1.23325C1.19251 21.0002 1.15395 20.9909 1.11957 20.9743H1.23325H1.49581H19.5657H19.8282ZM0.996539 20.7376V20.851C0.9801 20.8167 0.970895 20.7782 0.970895 20.7376V18.7846C0.970895 18.7439 0.9801 18.7054 0.996539 18.6711V18.7846V19.0469V20.4751V20.7376ZM13.2696 9.82407C13.2352 9.8075 13.1966 9.79823 13.1558 9.79823H7.90568C7.86497 9.79823 7.82641 9.8075 7.79201 9.82407H7.90568H8.16824H12.8932H13.1558H13.2696ZM0.0564659 8.61723V8.73051C0.0398534 8.69572 0.0308228 8.65712 0.0308228 8.61723V6.4517C0.0308228 6.41195 0.0398485 6.37337 0.0564659 6.33856V6.4517V6.5995V8.15961V8.61723Z" stroke="#DADADA" stroke-width="0.998535"/>
<path d="M7.66897 18.5477H7.64333H2.49115H2.46551H7.66897ZM7.66897 18.5477V18.522V10.3233V10.0608V9.94738M7.66897 18.5477V9.94738M13.3925 18.5477H13.4183H18.5703H18.596V18.522V7.94392V7.6371V7.62246L13.3925 18.5477ZM13.3925 18.5477V18.522V10.3233V10.0608V9.94697C13.4091 9.98139 13.4183 10.02 13.4183 10.0608V18.0228V18.522H13.9176H18.0711H18.5703V18.0228V7.6371L13.3925 18.5477ZM7.66897 9.94738C7.65254 9.98169 7.64333 10.0201 7.64333 10.0608V18.0228V18.522L7.66897 9.94738ZM20.891 6.24897L20.8909 6.24895L20.9041 6.22719L20.891 6.24897ZM0.31457 8.87895C0.35317 8.87583 0.391208 8.86415 0.425757 8.84393L1.46698 8.2352V8.20516L0.807733 8.59061L0.412691 8.82158L0.412682 8.82159L0.31457 8.87895ZM1.96624 7.94332H1.91483L1.95315 7.92091L1.99189 7.89826V7.94332V7.98718L1.96624 7.94332ZM1.96624 8.52165L1.99189 8.50665V18.522V18.5477H1.96624H1.49581H1.23325H1.11991C1.15421 18.5312 1.19265 18.522 1.23325 18.522H1.46698H1.96624V18.0228V8.52165ZM1.99189 19.0213H2.46551H2.49115H7.64333H7.66897H8.1426H8.16824H12.8932H12.9191H13.3925H13.4183H18.5703H18.596H19.0696H19.0952H19.5657H19.5915V19.0469V20.4751V20.5009H19.5657H1.49581H1.47016V20.4751V19.0469V19.0213H1.49581H1.96624H1.99189ZM8.16824 18.5477H8.1426V18.522V10.3233V10.2975H8.16824H12.8932H12.9191V10.3233V18.522V18.5477H12.8932H8.16824ZM19.0952 18.5477H19.0696V18.522V8.50715L19.0952 8.52213V18.0228V18.522H19.5945H19.8282C19.8688 18.522 19.9073 18.5312 19.9416 18.5477H19.8282H19.5657H19.0952ZM19.0952 7.94392L19.0696 7.98781L19.0952 7.94392ZM20.0649 18.7846V18.6708C20.0815 18.7052 20.0908 18.7438 20.0908 18.7846V20.7376C20.0908 20.7784 20.0815 20.8169 20.0649 20.8514V20.7376V20.4751V19.0469V18.7846ZM19.8282 20.9743H19.9419C19.9075 20.9909 19.869 21.0002 19.8282 21.0002H1.23325C1.19251 21.0002 1.15395 20.9909 1.11957 20.9743H1.23325H1.49581H19.5657H19.8282ZM0.996539 20.7376V20.851C0.9801 20.8167 0.970895 20.7782 0.970895 20.7376V18.7846C0.970895 18.7439 0.9801 18.7054 0.996539 18.6711V18.7846V19.0469V20.4751V20.7376ZM13.2696 9.82407C13.2352 9.8075 13.1966 9.79823 13.1558 9.79823H7.90568C7.86497 9.79823 7.82641 9.8075 7.79201 9.82407H7.90568H8.16824H12.8932H13.1558H13.2696ZM0.0564659 8.61723V8.73051C0.0398534 8.69572 0.0308228 8.65712 0.0308228 8.61723V6.4517C0.0308228 6.41195 0.0398485 6.37337 0.0564659 6.33856V6.4517V6.5995V8.15961V8.61723Z" stroke="black" stroke-opacity="0.2" stroke-width="0.998535"/>
</svg>
